@startuml pr3-class-diagram

!$ent = {"letter": "E", "color": "#ff1700"}
!$bnd = {"letter": "B", "color": "#ffa600"}
!$ctr = {"letter": "C", "color": "#4d6910"}

!theme reddress-lightred
hide members

skinparam DefaultFontName "jetbrains mono"
skinparam ClassFontName "jetbrains mono"

legend left
Типы классов:
<color:$ent.color>**( $ent.letter )**</color> - класс сущности
<color:$bnd.color>**( $bnd.letter )**</color> - граничный класс
<color:$ctr.color>**( $ctr.letter )**</color> - управляющий класс
end legend

namespace main {
    class dealership as "Автосалон" << ($bnd.letter, $bnd.color) >>

    class cars as "Автомобили" << ($ent.letter, $ent.color) >>
    class salesdept as "Отдел\nпродаж" << ($bnd.letter, $bnd.color) >>
    class manager as "Менеджер" << ($bnd.letter, $bnd.color) >>

    class caracc as "Учет\nавтомобилей" << ($ctr.letter, $ctr.color) >>
    class carbuy as "Закупка\nавтомобилей" << ($ctr.letter, $ctr.color) >>
    class carsell as "Продажа\nавтомобилей" << ($ctr.letter, $ctr.color) >>
    class carinfo as "Представление\nинформации" << ($bnd.letter, $bnd.color) >>

    class specs as "Характеристики" << ($ent.letter, $ent.color) >>
    class price as "Цена" << ($ent.letter, $ent.color) >>

    class clientsearch as "Поиск\nклиентов" << ($ctr.letter, $ctr.color) >>
    class clientattract as "Привлечение\nклиентов" << ($ctr.letter, $ctr.color) >>

    class reserve as "Осуществление\nбронирования" << ($ctr.letter, $ctr.color) >>
}

namespace database {
    class basedialog as "Диалоговое\nокно БД" << ($bnd.letter, $bnd.color) >>

    class dwinfoclient as "Диалоговое окно\nданных клиента" << ($bnd.letter, $bnd.color) >>
    class dwinfocar as "Диалоговое окно\nинформации\nоб автомобиле" << ($bnd.letter, $bnd.color) >>
    class dwpaystatus as "Диалоговое окно\nстатуса оплаты" << ($bnd.letter, $bnd.color) >>

    class controlpanel as "Панель\nуправления" << ($ctr.letter, $ctr.color) >>
    class tablist as "Набор\nвкладок" << ($bnd.letter, $bnd.color) >>
    class appaccsystem as "Система\nучета заявок" << ($ctr.letter, $ctr.color) >>

    class appclients as "Заявки\nклиентов" << ($ent.letter, $ent.color) >>
    class nodetree as "Дерево\nузлов" << ($ent.letter, $ent.color) >>
}

main.dealership o-- main.cars
main.dealership o-- main.salesdept
main.dealership o-- main.manager

left to right direction
main.manager *-- main.caracc
main.manager *-- main.carbuy
main.manager *-- main.carsell
main.manager *-- main.carinfo

main.carinfo --> main.specs
main.carinfo --> main.price

main.salesdept ..> main.clientsearch
main.salesdept *-- main.clientattract

main.reserve o-- main.manager
main.reserve ..> database.basedialog

database.basedialog <|-- database.dwinfoclient
database.basedialog <|-- database.dwinfocar
database.basedialog <|-- database.dwpaystatus

database.basedialog *-- database.controlpanel
database.basedialog *-- database.tablist
database.basedialog *-- database.appaccsystem

database.appaccsystem *-- database.appclients
database.appaccsystem *-- database.nodetree
@enduml
